<svg width="470" height="468" viewBox="0 0 470 468" fill="none" xmlns="http://www.w3.org/2000/svg">
<g filter="url(#filter0_dd_11_24)">
<path d="M20.635 139.808C35.782 66.782 82.388 26.109 155.085 13.822C208.825 4.741 262.585 4.626 316.235 14.077C391.087 27.262 436.085 70.307 450.42 144.437C461.495 201.727 461.669 259.628 450.246 316.864C434.922 389.384 387.114 434.149 314.685 446.391C260.945 455.471 207.185 455.586 153.535 446.136C78.683 432.95 33.485 387.756 19.151 313.627C7.51098 255.959 8.63098 197.692 20.635 139.807V139.808Z" fill="black"/>
</g>
<path d="M20.635 139.808C35.782 66.782 82.388 26.109 155.085 13.822C208.825 4.741 262.585 4.626 316.235 14.077C391.087 27.262 436.085 70.307 450.42 144.437C461.495 201.727 461.669 259.628 450.246 316.864C434.922 389.384 387.114 434.149 314.685 446.391C260.945 455.471 207.185 455.586 153.535 446.136C78.683 432.95 33.485 387.756 19.151 313.627C7.51098 255.959 8.63098 197.692 20.635 139.807V139.808Z" fill="#3DD736"/>
<path fill-rule="evenodd" clip-rule="evenodd" d="M242.667 130.841C290.019 134.44 327.923 171.826 332.339 218.945H242.667V130.841ZM156.552 170.311C172.621 148.513 197.535 133.641 226 130.989V215.342L156.552 170.311ZM235.166 110C170.456 110 117.998 162.458 117.998 227.168C117.998 291.876 170.457 344.333 235.166 344.333C248.934 344.333 262.143 341.951 274.415 337.59L268.095 320.076C257.529 323.859 246.388 325.787 235.165 325.776C181.258 325.776 137.557 282.075 137.557 228.168C137.557 212.48 141.263 197.661 147.839 184.528L225.999 235.668L332.492 235.613C330.632 260.245 319.632 282.323 302.874 298.47L316.196 311.792C338.463 290.465 352.333 260.436 352.333 227.168C352.333 162.458 299.874 110 235.166 110Z" fill="white"/>
<defs>
<filter id="filter0_dd_11_24" x="-0.000366211" y="-9.91821e-05" width="469.77" height="468.212" filterUnits="userSpaceOnUse" color-interpolation-filters="sRGB">
<feFlood flood-opacity="0" result="BackgroundImageFix"/>
<feColorMatrix in="SourceAlpha" type="matrix" values="0 0 0 0 0 0 0 0 0 0 0 0 0 0 0 0 0 0 127 0" result="hardAlpha"/>
<feOffset dy="5"/>
<feGaussianBlur stdDeviation="4"/>
<feColorMatrix type="matrix" values="0 0 0 0 0 0 0 0 0 0 0 0 0 0 0 0 0 0 0.078125 0"/>
<feBlend mode="normal" in2="BackgroundImageFix" result="effect1_dropShadow_11_24"/>
<feColorMatrix in="SourceAlpha" type="matrix" values="0 0 0 0 0 0 0 0 0 0 0 0 0 0 0 0 0 0 127 0" result="hardAlpha"/>
<feOffset dy="4"/>
<feGaussianBlur stdDeviation="5.5"/>
<feColorMatrix type="matrix" values="0 0 0 0 0 0 0 0 0 0 0 0 0 0 0 0 0 0 0.210824 0"/>
<feBlend mode="normal" in2="effect1_dropShadow_11_24" result="effect2_dropShadow_11_24"/>
<feBlend mode="normal" in="SourceGraphic" in2="effect2_dropShadow_11_24" result="shape"/>
</filter>
</defs>
</svg>
